<svg width="27" height="24" viewBox="0 0 27 24" fill="none" xmlns="http://www.w3.org/2000/svg">
<g clip-path="url(#clip0_1_2)">
<path d="M26.444 16.617L26.474 16.578C26.4961 16.5476 26.5168 16.5163 26.536 16.484C26.545 16.468 26.554 16.456 26.562 16.44L26.586 16.39C26.594 16.373 26.601 16.359 26.607 16.343L26.625 16.293L26.643 16.242L26.656 16.192L26.669 16.138C26.673 16.12 26.675 16.1 26.678 16.081L26.685 16.033C26.685 15.998 26.69 15.962 26.69 15.927C26.69 15.8917 26.6883 15.8563 26.685 15.821C26.685 15.805 26.681 15.788 26.678 15.773C26.675 15.758 26.673 15.734 26.669 15.716L26.656 15.662L26.643 15.613L26.625 15.561C26.619 15.543 26.614 15.528 26.607 15.512L26.586 15.465C26.5788 15.4479 26.5708 15.4313 26.562 15.415L26.536 15.371L26.507 15.323L26.473 15.277C26.461 15.262 26.454 15.25 26.443 15.238C26.421 15.212 26.398 15.1867 26.374 15.162L23.641 12.43C23.5415 12.3215 23.4211 12.2343 23.287 12.1736C23.1529 12.1129 23.0079 12.08 22.8607 12.0768C22.7136 12.0736 22.5673 12.1002 22.4307 12.1551C22.2941 12.2099 22.17 12.2918 22.0659 12.3958C21.9618 12.4999 21.8798 12.6239 21.8249 12.7605C21.7699 12.8971 21.7432 13.0433 21.7463 13.1905C21.7494 13.3377 21.7823 13.4827 21.8429 13.6168C21.9035 13.7509 21.9906 13.8714 22.099 13.971L22.1 13.972L22.965 14.837H19.637V9.092C19.6375 8.83931 19.5494 8.59443 19.388 8.4L19.389 8.402L19.385 8.396C19.3651 8.37206 19.344 8.34903 19.322 8.327L19.313 8.318L19.285 8.289L11.319 0.323C11.297 0.300967 11.2739 0.279946 11.25 0.26L11.227 0.242L11.174 0.202L11.147 0.183C11.128 0.17 11.108 0.159 11.089 0.148L11.065 0.134C11.039 0.12 11.012 0.107 10.984 0.0950002L10.95 0.0810002L10.895 0.0600002L10.856 0.0480002L10.793 0.0320002L10.765 0.0250002C10.734 0.0190002 10.703 0.0150002 10.672 0.0110002H1.093C0.805293 0.0107264 0.529147 0.124212 0.324773 0.326713C0.120399 0.529213 0.00437528 0.804303 0.00199986 1.092V22.91C0.00199986 23.513 0.491 24.001 1.093 24.001H18.547C19.15 24.001 19.638 23.512 19.638 22.91V17.019H22.967L22.102 17.884C21.9935 17.9835 21.9063 18.1039 21.8456 18.238C21.7849 18.3721 21.752 18.5171 21.7488 18.6643C21.7456 18.8114 21.7722 18.9577 21.8271 19.0943C21.8819 19.2309 21.9638 19.355 22.0678 19.4591C22.1719 19.5632 22.2959 19.6452 22.4325 19.7001C22.5691 19.7551 22.7153 19.7818 22.8625 19.7787C23.0097 19.7756 23.1547 19.7427 23.2888 19.6821C23.4229 19.6215 23.5434 19.5344 23.643 19.426L23.644 19.425L26.372 16.703C26.398 16.6737 26.4213 16.645 26.444 16.617ZM11.636 3.724L15.911 7.999H11.636V3.724ZM17.454 21.817H2.182V2.181H9.455V9.09C9.455 9.693 9.944 10.181 10.546 10.181H17.455V14.836H12.696C12.4066 14.836 12.1291 14.9509 11.9245 15.1555C11.7199 15.3601 11.605 15.6376 11.605 15.927C11.605 16.2164 11.7199 16.4939 11.9245 16.6985C12.1291 16.9031 12.4066 17.018 12.696 17.018H12.728H12.726H17.453L17.454 21.817Z" fill="#F8F8F8"/>
</g>
<defs>
<clipPath id="clip0_1_2">
<rect width="27" height="24" fill="white"/>
</clipPath>
</defs>
</svg>
